<svg id="Layer_1" data-name="Layer 1" fill="none" xmlns="http://www.w3.org/2000/svg" viewBox="0 0 460 460">

<path fill="#d4145a" d="
    M481.13,197.37,306.86,55.12a8.29,8.29,0,0,0-10.44,0L73.19,235.61l11-1.05a23.18,23.18,0,0,1,25.4,23.07V349.9a30.65,30.65,0,0,0,11.27,23.74
    L285.21,507.81a26,26,0,0,0,32.87,0L474.77,379.93a51.59,51.59,0,0,0,19-40h0l-90.4,73.79a32.21,32.21,0,0,1-41.89-1l-55.82-50.16L481.18,218A13.33,13.33,0,0,0,481.13,197.37
    Z
    M281.29,330.64l-55.73-57.4A80,80,0,0,1,203,217.53h0A76.57,76.57,0,0,1,229,160l20.43-17.94a11,11,0,0,1,15.11.6l78.83,81.19A37.41,37.41,0,0,1,341.22,278
    Z"
    transform="translate(-53.19 -53.26)"/>

</svg>