<svg id="Calque_1" data-name="Calque 1" fill="none" xmlns="http://www.w3.org/2000/svg" viewBox="0 0 660 660">

<path fill="#d4145a" d="M481.13,197.37,306.86,55.12a8.29,8.29,0,0,0-10.44,0L73.19,235.61l11-1.05a23.18,23.18,0,0,1,25.4,23.07V349.9a30.65,30.65,0,0,0,11.27,23.74L285.21,507.81a26,26,0,0,0,32.87,0L474.77,379.93a51.59,51.59,0,0,0,19-40h0l-90.4,73.79a32.21,32.21,0,0,1-41.89-1l-55.82-50.16L481.18,218A13.33,13.33,0,0,0,481.13,197.37ZM281.29,330.64l-55.73-57.4A80,80,0,0,1,203,217.53h0A76.57,76.57,0,0,1,229,160l20.43-17.94a11,11,0,0,1,15.11.6l78.83,81.19A37.41,37.41,0,0,1,341.22,278Z" transform="translate(53.19 -13)"/>

<path fill="#d4145a" d="M46.61,19.48,28.16,4.41a.89.89,0,0,0-1.11,0L3.41,23.53l1.16-.12a2.47,2.47,0,0,1,2.69,2.45v9.77a3.23,3.23,0,0,0,1.2,2.51l17.4,14.21a2.74,2.74,0,0,0,3.48,0l16.6-13.54a5.46,5.46,0,0,0,2-4.24h0l-9.57,7.82a3.4,3.4,0,0,1-4.43-.11L28,37,46.61,21.66A1.41,1.41,0,0,0,46.61,19.48ZM25.45,33.59l-5.9-6.08a8.46,8.46,0,0,1-2.4-5.9h0a8.12,8.12,0,0,1,2.76-6.09l2.16-1.9a1.18,1.18,0,0,1,1.61.06L32,22.28A4,4,0,0,1,31.79,28Z" transform="translate(150 520) scale(1.8)"/>
<path fill="#d4145a" d="M74.17,34.85V52.63h-8.1v-49H80.94q8.43,0,13.09,3.93t4.64,11.08a15.29,15.29,0,0,1-4.85,11.69Q89,34.86,80.7,34.85Zm0-24.54V28.22h5.26c3.49,0,6.14-.81,8-2.42A8.68,8.68,0,0,0,90.13,19q0-8.66-10-8.65Z" transform="translate(150 520) scale(1.8)"/>
<path fill="#d4145a" d="M134.18,53.45q-10.59,0-17-6.87T110.84,28.7q0-11.82,6.49-18.87t17.64-7q10.32,0,16.62,6.84T157.9,27.5q0,12-6.46,19T134.18,53.45Zm.38-43.51a13.65,13.65,0,0,0-11,5q-4.21,5-4.22,13.23t4.1,13.16a13.25,13.25,0,0,0,10.73,5q7,0,11.11-4.75t4.07-13.3q0-8.79-3.95-13.57T134.56,9.94Z" transform="translate(150 520) scale(1.8)"/>
<path fill="#d4145a" d="M171.63,50.68V42.3a13,13,0,0,0,2.69,1.85,19.42,19.42,0,0,0,3.3,1.38,26.09,26.09,0,0,0,3.48.88,19.1,19.1,0,0,0,3.22.3c3.41,0,6-.57,7.63-1.71a5.6,5.6,0,0,0,2.52-5,5.43,5.43,0,0,0-.84-3,9,9,0,0,0-2.34-2.34,25.5,25.5,0,0,0-3.54-2q-2-1-4.36-2-2.49-1.32-4.65-2.7a19.91,19.91,0,0,1-3.74-3,12.61,12.61,0,0,1-2.49-3.74,12.09,12.09,0,0,1-.91-4.89,11.27,11.27,0,0,1,1.56-6,13,13,0,0,1,4.1-4.2,18.51,18.51,0,0,1,5.79-2.46,27.35,27.35,0,0,1,6.63-.81q7.69,0,11.21,1.75v8q-4.17-3-10.73-3a19.1,19.1,0,0,0-3.61.34A11,11,0,0,0,183.34,11a7.06,7.06,0,0,0-2.31,2,5,5,0,0,0-.88,3,5.61,5.61,0,0,0,.68,2.84,7.27,7.27,0,0,0,2,2.18A20.29,20.29,0,0,0,186,23q1.91.93,4.39,2,2.56,1.33,4.84,2.8a22.77,22.77,0,0,1,4,3.25A14.12,14.12,0,0,1,202,35,11.45,11.45,0,0,1,203,40a11.58,11.58,0,0,1-5.55,10.45,17.89,17.89,0,0,1-5.86,2.33,33,33,0,0,1-7,.72c-.82,0-1.83-.07-3-.19s-2.42-.31-3.67-.55a35,35,0,0,1-3.56-.87A11.54,11.54,0,0,1,171.63,50.68Z" transform="translate(150 520) scale(1.8)"/>
</svg>